<svg id="Layer_1" data-name="Layer 1" xmlns="http://www.w3.org/2000/svg" viewBox="0 0 1595.92 1272.74"><defs><style>.cls-1{fill:#65afcd;}.cls-2{fill:#3f3f69;}.cls-3{fill:#fff;}</style></defs><path class="cls-1" d="M849.56,1358.69c507.45-178.84,798-549.62,798-806.91S1439,86,1181.67,86C1053,86,933.88,138.09,849.56,222.38,765.27,138.09,646.1,86,517.46,86,260.18,86,51.61,294.5,51.61,551.78S342.14,1179.85,849.56,1358.69Z" transform="translate(-51.61 -85.96)"/><path class="cls-2" d="M849.56,1358.69c358.11-126.21,563.16-387.89,563.16-569.45S1265.52,460.46,1084,460.46c-90.8,0-174.89,36.8-234.4,96.29C790.08,497.26,706,460.46,615.18,460.46c-181.57,0-328.76,147.21-328.76,328.78S491.46,1232.48,849.56,1358.69Z" transform="translate(-51.61 -85.96)"/><path class="cls-3" d="M971.38,404.27A125.38,125.38,0,1,1,846,278.9,125.39,125.39,0,0,1,971.38,404.27Z" transform="translate(-51.61 -85.96)"/><path class="cls-3" d="M849.56,477.77c-19.45-19.45-41.73,42.84-65.78,28.74l27.29,837.8c12.65,5,25.44,9.78,38.49,14.38,10.56-3.73,21-7.59,31.28-11.52L908.1,510.86C886.84,524.06,867,460.3,849.56,477.77Z" transform="translate(-51.61 -85.96)"/><path class="cls-3" d="M1067,516.4c-42,82.25-181.16,123.39-181.16,123.39l-5.25,127.76c47.92,140.79,174.27,74.29,216,47.47a718.67,718.67,0,0,0-4.87-79,225.13,225.13,0,0,0,28.18,75.87c102.49,65.22,154.83,14.59,176.36-19.66-16.41-54.43-54-116.83-54-116.83,56,83.43,144.58,99.28,172.58,102.24,82.84-28.16,98.42-148.33,98.42-148.33C1296.32,683.53,1067,516.4,1067,516.4Z" transform="translate(-51.61 -85.96)"/><path class="cls-3" d="M632.12,516.4c42,82.25,181.16,123.39,181.16,123.39l5.25,127.76c-47.92,140.79-174.27,74.29-216,47.47a720.06,720.06,0,0,1,4.88-79,224.92,224.92,0,0,1-28.18,75.87c-102.48,65.22-154.86,14.59-176.35-19.66,16.38-54.43,53.95-116.83,53.95-116.83-56,83.43-144.59,99.28-172.6,102.24-82.83-28.16-98.39-148.33-98.39-148.33C402.84,683.53,632.12,516.4,632.12,516.4Z" transform="translate(-51.61 -85.96)"/></svg>