<svg xmlns="http://www.w3.org/2000/svg" xmlns:xlink="http://www.w3.org/1999/xlink" viewBox="0 0 1232.87 1375.8"><defs><style>.cls-1{isolation:isolate;}.cls-2{fill:url(#linear-gradient);}.cls-3,.cls-4{mix-blend-mode:multiply;}.cls-3{fill:url(#linear-gradient-2);}.cls-4{fill:url(#linear-gradient-3);}</style><linearGradient id="linear-gradient" x1="606.39" y1="417.07" x2="1214.8" y2="1025.47" gradientUnits="userSpaceOnUse"><stop offset="0" stop-color="#ff3f88"/><stop offset="1" stop-color="#9a29ff"/></linearGradient><linearGradient id="linear-gradient-2" x1="1215.16" y1="232.84" x2="561.06" y2="623.65" gradientUnits="userSpaceOnUse"><stop offset="0" stop-color="#fff"/><stop offset="1" stop-color="#234fbb"/></linearGradient><linearGradient id="linear-gradient-3" x1="774.07" y1="993.96" x2="480.96" y2="852.03" xlink:href="#linear-gradient-2"/></defs><g class="cls-1"><g id="Layer_1" data-name="Layer 1"><path class="cls-2" d="M1399,715.76C1242,1074,1440.73,1369.93,1209.19,1396c-140,15.71-194.25-392-199.74-410.08C953.94,803.82,1108.21,628,1108.21,628c-132.65,22.71-222.82,104.95-281,185-51.54,71-84.23,153.88-99,240.39-20.26,118.81-75.07,355.4-189,342.56-231.54-26-32.73-321.93-189.79-680.21C255,500.11,201.29,272.11,352,112.35c31.62-33.57,65.74-56.26,101-70.67,152.31-62.58,248.18,166.54,98.38,234.8-88.9,40.45-172.87,58.39-172.87,58.39C660.46,359,820.87,231.1,890.43,154.57c50.3-55.33,113.91-97.46,185.79-117.82,101.45-28.64,222.89-27.62,320.25,75.6C1547.3,272.11,1493.46,500.11,1399,715.76Z" transform="translate(-257.83 -20.68)"/><path class="cls-3" d="M1076.22,36.75c-71.88,20.36-135.49,62.49-185.79,117.82C822.48,229.33,667.77,353,397.84,336.22c62.24,29.69,608.26,278.85,1084.07,122.2,22-128.4,5.58-249.67-85.44-346.07C1299.11,9.13,1177.67,8.11,1076.22,36.75Z" transform="translate(-257.83 -20.68)"/><path class="cls-4" d="M424.78,1095.41c-2.61,7.38-5.06,14.58-7.44,21.71-1.79,157.1-12.81,263.69,122,278.85,113.91,12.84,168.72-223.75,189-342.56C743,966.9,775.72,884.05,827.26,813c58.13-80.1,148.3-162.34,281-185C1108.21,628,616.07,555.48,424.78,1095.41Z" transform="translate(-257.83 -20.68)"/></g></g></svg>