<svg xmlns="http://www.w3.org/2000/svg" xmlns:xlink="http://www.w3.org/1999/xlink" viewBox="0 0 1232.71 1338.5"><defs><style>.cls-1{isolation:isolate;}.cls-2{fill:url(#New_Gradient_Swatch_11);}.cls-11,.cls-12,.cls-15,.cls-16,.cls-21,.cls-22,.cls-25,.cls-26,.cls-3,.cls-4,.cls-7,.cls-8{mix-blend-mode:screen;}.cls-3{fill:url(#New_Gradient_Swatch_11-2);}.cls-4{fill:url(#New_Gradient_Swatch_11-3);}.cls-10,.cls-13,.cls-14,.cls-17,.cls-18,.cls-5,.cls-6,.cls-9{opacity:0.18;}.cls-10,.cls-13,.cls-14,.cls-17,.cls-18,.cls-20,.cls-24,.cls-5,.cls-6,.cls-9{mix-blend-mode:multiply;}.cls-5{fill:url(#New_Gradient_Swatch_11-4);}.cls-6{fill:url(#New_Gradient_Swatch_11-5);}.cls-7{fill:url(#New_Gradient_Swatch_11-6);}.cls-8{fill:url(#New_Gradient_Swatch_11-7);}.cls-9{fill:url(#New_Gradient_Swatch_11-8);}.cls-10{fill:url(#New_Gradient_Swatch_11-9);}.cls-11{fill:url(#New_Gradient_Swatch_11-10);}.cls-12{fill:url(#New_Gradient_Swatch_11-11);}.cls-13{fill:url(#New_Gradient_Swatch_11-12);}.cls-14{fill:url(#New_Gradient_Swatch_11-13);}.cls-15{fill:url(#New_Gradient_Swatch_11-14);}.cls-16{fill:url(#New_Gradient_Swatch_11-15);}.cls-17{fill:url(#New_Gradient_Swatch_11-16);}.cls-18{fill:url(#New_Gradient_Swatch_11-17);}.cls-19{fill:url(#radial-gradient);}.cls-20{fill:url(#linear-gradient);}.cls-21{fill:url(#radial-gradient-2);}.cls-22{fill:url(#radial-gradient-3);}.cls-23{fill:url(#radial-gradient-4);}.cls-24{fill:url(#linear-gradient-2);}.cls-25{fill:url(#radial-gradient-5);}.cls-26{fill:url(#radial-gradient-6);}</style><radialGradient id="New_Gradient_Swatch_11" cx="834.67" cy="581.2" r="535.47" gradientUnits="userSpaceOnUse"><stop offset="0" stop-color="#35caed"/><stop offset="0.39" stop-color="#2491eb"/><stop offset="1" stop-color="#104378"/></radialGradient><radialGradient id="New_Gradient_Swatch_11-2" cx="965.85" cy="172.41" r="171.65" xlink:href="#New_Gradient_Swatch_11"/><radialGradient id="New_Gradient_Swatch_11-3" cx="928.22" cy="208.51" r="208.51" xlink:href="#New_Gradient_Swatch_11"/><radialGradient id="New_Gradient_Swatch_11-4" cx="928.22" cy="371.47" r="150.92" xlink:href="#New_Gradient_Swatch_11"/><radialGradient id="New_Gradient_Swatch_11-5" cx="-6918.04" cy="-7662.46" r="150.92" gradientTransform="matrix(0, -1, -1, 0, -6897.2, -6709.53)" xlink:href="#New_Gradient_Swatch_11"/><radialGradient id="New_Gradient_Swatch_11-6" cx="-955.68" cy="218.14" r="171.65" gradientTransform="matrix(-1, 0, 0, 1, -719, -45.73)" xlink:href="#New_Gradient_Swatch_11"/><radialGradient id="New_Gradient_Swatch_11-7" cx="-993.3" cy="254.24" r="208.51" gradientTransform="matrix(-1, 0, 0, 1, -719, -45.73)" xlink:href="#New_Gradient_Swatch_11"/><radialGradient id="New_Gradient_Swatch_11-8" cx="-993.3" cy="417.2" r="150.92" gradientTransform="matrix(-1, 0, 0, 1, -719, -45.73)" xlink:href="#New_Gradient_Swatch_11"/><radialGradient id="New_Gradient_Swatch_11-9" cx="-6918.04" cy="-5507.53" r="150.92" gradientTransform="translate(5944.8 -6709.53) rotate(-90)" xlink:href="#New_Gradient_Swatch_11"/><radialGradient id="New_Gradient_Swatch_11-10" cx="1199.25" cy="-13570.35" r="171.65" gradientTransform="matrix(1, 0, 0, -1, -233.41, -12671.83)" xlink:href="#New_Gradient_Swatch_11"/><radialGradient id="New_Gradient_Swatch_11-11" cx="1161.63" cy="-13534.25" r="208.51" gradientTransform="matrix(1, 0, 0, -1, -233.41, -12671.83)" xlink:href="#New_Gradient_Swatch_11"/><radialGradient id="New_Gradient_Swatch_11-12" cx="1161.63" cy="-13371.29" r="150.92" gradientTransform="matrix(1, 0, 0, -1, -233.41, -12671.83)" xlink:href="#New_Gradient_Swatch_11"/><radialGradient id="New_Gradient_Swatch_11-13" cx="6870.46" cy="-7662.46" r="150.92" gradientTransform="translate(-6897.2 -6008.03) rotate(90)" xlink:href="#New_Gradient_Swatch_11"/><radialGradient id="New_Gradient_Swatch_11-14" cx="-955.68" cy="-13570.35" r="171.65" gradientTransform="translate(-719 -12671.83) rotate(180)" xlink:href="#New_Gradient_Swatch_11"/><radialGradient id="New_Gradient_Swatch_11-15" cx="-993.3" cy="-13534.25" r="208.51" gradientTransform="translate(-719 -12671.83) rotate(180)" xlink:href="#New_Gradient_Swatch_11"/><radialGradient id="New_Gradient_Swatch_11-16" cx="-993.3" cy="-13371.29" r="150.92" gradientTransform="translate(-719 -12671.83) rotate(180)" xlink:href="#New_Gradient_Swatch_11"/><radialGradient id="New_Gradient_Swatch_11-17" cx="6870.46" cy="-5507.53" r="150.92" gradientTransform="matrix(0, 1, 1, 0, 5944.8, -6008.03)" xlink:href="#New_Gradient_Swatch_11"/><radialGradient id="radial-gradient" cx="-910.48" cy="-1624.78" r="965.49" gradientTransform="translate(2816.7 1892.07) rotate(-18.52)" xlink:href="#New_Gradient_Swatch_11"/><linearGradient id="linear-gradient" x1="-1377.31" y1="-1546.73" x2="-1116.07" y2="-1317.32" gradientTransform="translate(2816.7 1892.07) rotate(-18.52)" gradientUnits="userSpaceOnUse"><stop offset="0" stop-color="#00659c"/><stop offset="0.06" stop-color="#2078a8"/><stop offset="0.15" stop-color="#5296bb"/><stop offset="0.26" stop-color="#7fb1cc"/><stop offset="0.36" stop-color="#a5c7da"/><stop offset="0.47" stop-color="#c4dae6"/><stop offset="0.58" stop-color="#dce8ef"/><stop offset="0.7" stop-color="#edf2f5"/><stop offset="0.84" stop-color="#f7f8f9"/><stop offset="1" stop-color="#fafafa"/></linearGradient><radialGradient id="radial-gradient-2" cx="-1128.38" cy="-1671.78" r="510.99" gradientTransform="translate(2816.7 1892.07) rotate(-18.52)" gradientUnits="userSpaceOnUse"><stop offset="0" stop-color="#35caed"/><stop offset="1"/></radialGradient><radialGradient id="radial-gradient-3" cx="-846.1" cy="-1813.76" r="591.93" gradientTransform="translate(2816.7 1892.07) rotate(-18.52)" gradientUnits="userSpaceOnUse"><stop offset="0" stop-color="#35caed"/><stop offset="1" stop-color="#030303"/></radialGradient><radialGradient id="radial-gradient-4" cx="836.18" cy="-1039.55" r="965.49" gradientTransform="matrix(-0.95, -0.32, -0.32, 0.95, 724.95, 1892.07)" xlink:href="#New_Gradient_Swatch_11"/><linearGradient id="linear-gradient-2" x1="369.35" y1="-961.5" x2="630.6" y2="-732.09" gradientTransform="matrix(-0.95, -0.32, -0.32, 0.95, 724.95, 1892.07)" xlink:href="#linear-gradient"/><radialGradient id="radial-gradient-5" cx="618.29" cy="-1086.55" r="510.99" gradientTransform="matrix(-0.95, -0.32, -0.32, 0.95, 724.95, 1892.07)" xlink:href="#radial-gradient-2"/><radialGradient id="radial-gradient-6" cx="900.57" cy="-1228.53" r="591.93" gradientTransform="matrix(-0.95, -0.32, -0.32, 0.95, 724.95, 1892.07)" xlink:href="#radial-gradient-3"/></defs><g class="cls-1"><g id="Layer_1" data-name="Layer 1"><path class="cls-2" d="M1044.22,331.61V45.73H625.12V371.65H299.2v419.1H625.12v325.92h419.1V790.75h325.92V371.65H1044.22ZM1279,462.75v236.9H953.12v325.92H716.22V699.65H390.3V462.75H716.22V136.83h236.9V462.75Z" transform="translate(-233.41 -45.73)"/><polygon class="cls-3" points="810.81 0 794.96 344.82 1136.73 325.92 810.81 325.92 810.81 0"/><polygon class="cls-4" points="810.81 0 719.71 417.02 1136.73 325.92 810.81 325.92 810.81 0"/><polygon class="cls-5" points="1136.73 325.92 719.71 417.02 786.17 417.02 1136.73 341.88 1136.73 325.92"/><polygon class="cls-6" points="810.81 0 719.71 417.02 719.71 350.56 794.86 0 810.81 0"/><polygon class="cls-7" points="391.72 0 407.56 344.82 65.8 325.92 391.72 325.92 391.72 0"/><polygon class="cls-8" points="391.72 0 482.82 417.02 65.8 325.92 391.72 325.92 391.72 0"/><polygon class="cls-9" points="65.8 325.92 482.82 417.02 416.36 417.02 65.8 341.88 65.8 325.92"/><polygon class="cls-10" points="391.72 0 482.82 417.02 482.82 350.56 407.67 0 391.72 0"/><polygon class="cls-11" points="810.81 1070.94 794.96 726.11 1136.73 745.01 810.81 745.01 810.81 1070.94"/><polygon class="cls-12" points="810.81 1070.94 719.71 653.91 1136.73 745.01 810.81 745.01 810.81 1070.94"/><polygon class="cls-13" points="1136.73 745.01 719.71 653.91 786.17 653.91 1136.73 729.06 1136.73 745.01"/><polygon class="cls-14" points="810.81 1070.94 719.71 653.91 719.71 720.37 794.86 1070.94 810.81 1070.94"/><polygon class="cls-15" points="391.72 1070.94 407.56 726.11 65.8 745.01 391.72 745.01 391.72 1070.94"/><polygon class="cls-16" points="391.72 1070.94 482.82 653.91 65.8 745.01 391.72 745.01 391.72 1070.94"/><polygon class="cls-17" points="65.8 745.01 482.82 653.91 416.36 653.91 65.8 729.06 65.8 745.01"/><polygon class="cls-18" points="391.72 1070.94 482.82 653.91 482.82 720.37 407.67 1070.94 391.72 1070.94"/><path class="cls-19" d="M903.53,1365.38a28.25,28.25,0,0,0,38,16.45c122.29-53.73,379.14-224.24,438.76-343.95,64.74-130,123.23-353.12,56-553.89,0,0-6.78-20.66-34.83-11.26s-30.49,161.27-78.16,257S1215.48,945.1,1144.57,968.86c0,0,35.91-34.06,82.84-128.29,42.9-86.14,57.36-134,38.24-143.53s-54.8-1.53-73.12,34.56C1105.72,902.66,964.19,883.14,888.79,1037,831,1154.9,876,1287.35,903.53,1365.38Z" transform="translate(-233.41 -45.73)"/><path class="cls-20" d="M903.53,1365.38a28.25,28.25,0,0,0,38,16.45c122.29-53.73,379.14-224.24,438.76-343.95,64.74-130,123.23-353.12,56-553.89,0,0-6.78-20.66-34.83-11.26s-30.49,161.27-78.16,257S1215.48,945.1,1144.57,968.86c0,0,35.91-34.06,82.84-128.29,42.9-86.14,57.36-134,38.24-143.53s-54.8-1.53-73.12,34.56C1105.72,902.66,964.19,883.14,888.79,1037,831,1154.9,876,1287.35,903.53,1365.38Z" transform="translate(-233.41 -45.73)"/><path class="cls-21" d="M1144.57,968.86c5.12-5.41,13.65-15.52,13.65-15.52,14.62-18.18,39.73-53.62,69.19-112.77,42.9-86.14,57.36-134,38.24-143.53s-54.8-1.54-73.12,34.56C1105.72,902.66,964.19,883.14,888.79,1037c-34.35,70.11-32.39,145.35-19.36,211.24,6.07,30.68,50.06,30.42,55.53-.38,7.18-40.45,18.65-83.35,36.93-120.06C1015,1021.21,1114.18,1001,1144.57,968.86Z" transform="translate(-233.41 -45.73)"/><path class="cls-22" d="M1426.27,489.58c2.63,11.32,52.79,311.53-96,524.31q-18.86,27-38.88,52c-22.84,28.68,18.8,63.92,43.11,36.47,19.85-22.42,35.65-44.19,45.76-64.51,64.75-130,123.24-353.12,56-553.89,0,0-6.78-20.66-34.83-11.26C1410.86,473.26,1423.64,478.27,1426.27,489.58Z" transform="translate(-233.41 -45.73)"/><path class="cls-23" d="M796,1365.38a28.25,28.25,0,0,1-38,16.45c-122.29-53.73-379.14-224.24-438.76-343.95C254.5,907.89,196,684.76,263.28,484c0,0,6.78-20.66,34.83-11.26s30.48,161.27,78.16,257S484.05,945.1,555,968.86c0,0-35.9-34.06-82.83-128.29-42.9-86.14-57.36-134-38.24-143.53s54.8-1.53,73.11,34.56C593.81,902.66,735.34,883.14,810.74,1037,868.52,1154.9,823.57,1287.35,796,1365.38Z" transform="translate(-233.41 -45.73)"/><path class="cls-24" d="M796,1365.38a28.25,28.25,0,0,1-38,16.45c-122.29-53.73-379.14-224.24-438.76-343.95C254.5,907.89,196,684.76,263.28,484c0,0,6.78-20.66,34.83-11.26s30.48,161.27,78.16,257S484.05,945.1,555,968.86c0,0-35.9-34.06-82.83-128.29-42.9-86.14-57.36-134-38.24-143.53s54.8-1.53,73.11,34.56C593.81,902.66,735.34,883.14,810.74,1037,868.52,1154.9,823.57,1287.35,796,1365.38Z" transform="translate(-233.41 -45.73)"/><path class="cls-25" d="M555,968.86c-5.11-5.41-13.64-15.52-13.64-15.52-14.62-18.18-39.73-53.62-69.19-112.77-42.9-86.14-57.36-134-38.24-143.53s54.8-1.54,73.11,34.56C593.81,902.66,735.34,883.14,810.74,1037c34.35,70.11,32.39,145.35,19.36,211.24-6.07,30.68-50.06,30.42-55.53-.38-7.18-40.45-18.65-83.35-36.93-120.06C684.56,1021.21,585.35,1001,555,968.86Z" transform="translate(-233.41 -45.73)"/><path class="cls-26" d="M273.26,489.58c-2.63,11.32-52.79,311.53,96,524.31q18.86,27,38.88,52c22.84,28.68-18.8,63.92-43.11,36.47-19.85-22.42-35.65-44.19-45.77-64.51C254.5,907.89,196,684.76,263.28,484c0,0,6.77-20.66,34.83-11.26C288.67,473.26,275.89,478.27,273.26,489.58Z" transform="translate(-233.41 -45.73)"/></g></g></svg>