<svg xmlns="http://www.w3.org/2000/svg" viewBox="0 0 1309.76 1350.17"><defs><style>.cls-1{isolation:isolate;}.cls-2{fill:#fd0028;}.cls-3{fill:#929292;opacity:0.5;mix-blend-mode:multiply;}.cls-4{fill:#001a56;}.cls-5,.cls-7{opacity:0.3;mix-blend-mode:overlay;}.cls-6,.cls-7{fill:#fff;}</style></defs><g class="cls-1"><g id="Layer_1" data-name="Layer 1"><path class="cls-2" d="M1209.11,263c-175.68-156.16-322.18,32.59-322.18,32.59S740.43,106.86,564.75,263,548.52,698.46,886.93,891C1241.46,674.48,1384.8,419.18,1209.11,263Z" transform="translate(-232.05 -35.5)"/><path class="cls-3" d="M886.93,822.32C662.07,694.4,516.38,528.2,495.36,385.24,470.33,540.9,624.92,741.93,886.93,891c271.67-165.91,419.12-354.54,394.25-503.94C1259.77,523.09,1118.4,681,886.93,822.32Z" transform="translate(-232.05 -35.5)"/><path class="cls-2" d="M826.58,1137.14C805.94,1122.9,320.19,785.3,247.29,511.22c-34.58-130-9.69-253.57,68.29-338.93C392.06,88.58,510.58,51.12,632.67,72l-7.18,41.89C517.74,95.48,413.63,128,347,201c-69,75.54-89.83,181.85-58.59,299.32,68.87,259,557.42,598.46,562.34,601.86Z" transform="translate(-232.05 -35.5)"/><path class="cls-3" d="M288.37,500.29C257.13,382.82,277.94,276.51,347,201c66.67-73,170.78-105.49,278.53-87l4.47-26c-114.07-17.54-224.22,18.18-295.75,96.48-74.33,81.36-98,199.1-65.09,323,69.48,261.23,532.46,583,552.13,596.58l10.55-15.3C741.2,1023.4,349.52,730.21,288.37,500.29Z" transform="translate(-232.05 -35.5)"/><path class="cls-2" d="M947.28,1137.14c20.64-14.24,506.39-351.84,579.29-625.92,34.58-130,9.69-253.57-68.29-338.93C1381.8,88.58,1263.28,51.12,1141.19,72l7.18,41.89c107.75-18.45,211.86,14.08,278.53,87,69,75.54,89.83,181.85,58.59,299.32-68.87,259-557.42,598.46-562.34,601.86Z" transform="translate(-232.05 -35.5)"/><path class="cls-3" d="M1485.49,500.29c31.24-117.47,10.43-223.78-58.59-299.32-66.67-73-170.78-105.49-278.53-87l-4.47-26c114.07-17.54,224.22,18.18,295.75,96.48,74.33,81.36,98,199.1,65.09,323-69.48,261.23-532.46,583-552.13,596.58l-10.55-15.3C1032.66,1023.4,1424.34,730.21,1485.49,500.29Z" transform="translate(-232.05 -35.5)"/><path class="cls-4" d="M1253.62,728.15c-104.92,92.13-364.51,320-366.69,321.52-2.18-1.5-261.77-229.39-366.69-321.52a75.43,75.43,0,0,0-91.37-6.23h0c-41,27.08-45.7,85.43-9.47,118.62,103.83,95.09,293.7,267,377.54,330.2v124.94a90,90,0,0,0,90,90h0a90,90,0,0,0,90-90V1170.74c83.84-63.21,273.71-235.11,377.54-330.2C1390.69,807.35,1386,749,1345,721.92h0A75.43,75.43,0,0,0,1253.62,728.15Z" transform="translate(-232.05 -35.5)"/><g class="cls-5"><path class="cls-6" d="M886.93,1152.43c2.8-1.94,317.62-278.28,474.33-415.87a75.37,75.37,0,0,1,16.87,38.29,75.41,75.41,0,0,0-124.51-46.7c-104.92,92.13-364.51,320-366.69,321.52-2.18-1.5-261.77-229.39-366.69-321.52a75.43,75.43,0,0,0-91.37-6.23h0a75.37,75.37,0,0,0-16.27,14.64C569.31,874.15,884.13,1150.49,886.93,1152.43Z" transform="translate(-232.05 -35.5)"/></g><polygon class="cls-3" points="585.37 677.75 585.37 580.08 487.71 580.08 487.71 441.07 585.37 441.07 585.37 343.4 724.39 343.4 724.39 441.07 822.05 441.07 822.05 580.08 724.39 580.08 724.39 677.75 585.37 677.75"/><polygon class="cls-6" points="807.27 459.5 705.96 459.5 705.96 358.19 603.8 358.19 603.8 459.5 502.49 459.5 502.49 561.65 603.8 561.65 603.8 662.96 705.96 662.96 705.96 561.65 807.27 561.65 807.27 459.5"/><path class="cls-4" d="M585.62,35.5h42.61a55.93,55.93,0,0,1,55.93,55.94h0a55.94,55.94,0,0,1-55.93,55.94H585.62a55.94,55.94,0,0,1-55.94-55.94h0A55.93,55.93,0,0,1,585.62,35.5Z" transform="translate(-232.05 -35.5)"/><path class="cls-7" d="M628.22,35.5h-42.6a55.93,55.93,0,0,0-55.94,55.94H684.16A55.93,55.93,0,0,0,628.22,35.5Z" transform="translate(-232.05 -35.5)"/><path class="cls-4" d="M1145.63,35.5h42.61a55.93,55.93,0,0,1,55.94,55.94h0a55.94,55.94,0,0,1-55.94,55.94h-42.61a55.94,55.94,0,0,1-55.93-55.94h0A55.93,55.93,0,0,1,1145.63,35.5Z" transform="translate(-232.05 -35.5)"/><path class="cls-7" d="M1188.24,35.5h-42.61a55.93,55.93,0,0,0-55.93,55.94h154.48A55.93,55.93,0,0,0,1188.24,35.5Z" transform="translate(-232.05 -35.5)"/></g></g></svg>