<svg xmlns="http://www.w3.org/2000/svg" viewBox="0 0 1283.21 1335.44"><defs><style>.cls-1{isolation:isolate;}.cls-2{fill:#fd0028;}.cls-3,.cls-5{fill:#929292;}.cls-3{opacity:0.6;}.cls-3,.cls-5,.cls-7{mix-blend-mode:multiply;}.cls-4{fill:#fff;}.cls-5,.cls-7{opacity:0.5;}.cls-6,.cls-7{fill:#001a56;}</style></defs><g class="cls-1"><g id="Layer_1" data-name="Layer 1"><path class="cls-2" d="M1240.86,350.56C947,236.8,833.19,450.73,833.19,450.73S719.43,236.8,425.53,350.56s-453.65,770.55,407.66,1023.9C1675.24,1126.24,1534.75,464.33,1240.86,350.56Z" transform="translate(-191.03 -39.02)"/><path class="cls-3" d="M1243.59,1128.89l-.79-14.25C1225.12,798,1052.53,616.09,910.87,519.27,758.1,414.86,611.41,385.39,605.24,384.19l-16.92-3.3-7.61,15.47c-1.24,2.52-30.08,62.68-11.22,157.72,22.07,111.27,10.62,145.64-1.51,182l-2.39,7.2c-11.08,33.89-27.77,48.92-40,59.9-11.39,10.26-35.11,31.61-10.45,61.83,17.32,21.23,40.25,25.55,55.41,28.43l2,.37c-.65,1-1.29,1.91-1.83,2.68-5.21,7.52-19.06,27.53-3.41,46.37,5.31,6.39,11.88,11,17.16,14.68.5.35,1.07.73,1.65,1.15-4.85,12-14.47,37.87,8.77,53.27a73.44,73.44,0,0,0,11.44,6c8.41,3.71,8.74,3.85,8.93,13.06,1.55,72.69,35.77,118.92,93.89,126.81a190.77,190.77,0,0,0,25.85,1.71c53.22,0,104.34-20.41,132.26-33.85,37,128.37-19.37,198.25-19.37,198.25C689.06,1272,373.56,1140.44,263.35,877.67,208.38,746.61,209.11,614,209.11,614,138.88,861,258.28,1205.7,832,1374.46Z" transform="translate(-191.03 -39.02)"/><path class="cls-4" d="M1220.29,1115.9c-33.22-595.26-619.36-709.6-619.36-709.6S574,461,591.6,549.69C616.25,674,600.51,709.06,587,750.33c-25.19,77-77.18,72.5-54.36,100.47S594,865.16,598,884.35s-22.72,32.79-13.29,44.15,30,17.14,25.82,29.68-13.93,27.86-3.11,35,29.79,7.08,30.44,37.29,9,96.09,74.38,105c79.63,10.82,165.2-40.61,165.2-40.61,43,80.12,34,152.34,20.69,196Z" transform="translate(-191.03 -39.02)"/><path class="cls-5" d="M1240.86,350.56C947,236.8,833.19,450.72,833.19,450.72S758.09,309.5,572.28,317.56c-35.06,44.88-49,97.92-40.27,154.62,12.85,83.38,75.7,166.26,164,216.3,15.18,8.6,30.56,17,45.89,25.33,124.67,67.89,232.35,126.53,222.81,286.33-4.23,70.86-35.58,202.15-59.85,262.91C904.87,1263.05,1534.75,464.33,1240.86,350.56Z" transform="translate(-191.03 -39.02)"/><path class="cls-6" d="M833.19,1374.46c861.32-253.35,698.83-903.32,407.67-1023.9-256.47-106.2-407.67,64.91-407.67,64.91S766,324.69,601.7,317.68C497.26,429.92,569.55,590.92,707.13,668.87,844.89,746.93,998.89,806,987.22,1001.48S833.19,1374.46,833.19,1374.46Z" transform="translate(-191.03 -39.02)"/><path class="cls-7" d="M1456.08,614c-8,76.45-27.8,163.16-67.41,257.3-145.39,345.57-555.48,503.18-555.48,503.18C1406.92,1205.7,1526.32,861,1456.08,614Z" transform="translate(-191.03 -39.02)"/><path class="cls-2" d="M587.5,281c135,0,212.25,50.9,245.69,93.48C866.62,331.91,943.86,281,1078.89,281c28.81,0,58.86,3.57,89.83,10.41L1084.85,81.65c-242.78-95.92-503.31,0-503.31,0L497.67,291.42C528.64,284.58,558.69,281,587.5,281Z" transform="translate(-191.03 -39.02)"/><polygon class="cls-4" points="729.06 115.31 664.06 115.31 664.06 50.31 620.28 50.31 620.28 115.31 555.28 115.31 555.28 159.08 620.28 159.08 620.28 224.09 664.06 224.09 664.06 159.08 729.06 159.08 729.06 115.31"/></g></g></svg>