<svg xmlns="http://www.w3.org/2000/svg" xmlns:xlink="http://www.w3.org/1999/xlink" viewBox="0 0 1632.61 979.95"><defs><style>.cls-1{isolation:isolate;}.cls-2{fill:url(#Degradado_sin_nombre_21);}.cls-3{mix-blend-mode:multiply;fill:url(#Degradado_sin_nombre_22);}</style><linearGradient id="Degradado_sin_nombre_21" x1="815.04" y1="819.22" x2="1473.54" y2="160.73" gradientUnits="userSpaceOnUse"><stop offset="0" stop-color="#ed5a7c"/><stop offset="0.87" stop-color="#fe96a7"/></linearGradient><linearGradient id="Degradado_sin_nombre_22" x1="159.07" y1="819.22" x2="817.57" y2="160.73" gradientUnits="userSpaceOnUse"><stop offset="0" stop-color="#2f7abd"/><stop offset="1" stop-color="#57b2da"/></linearGradient></defs><g class="cls-1"><g id="Layer_1" data-name="Layer 1"><polygon class="cls-2" points="1632.61 321.75 1312.81 321.75 1312.81 0 976.54 0 976.54 321.46 655.97 321.93 655.97 658.2 975.77 658.2 975.77 979.95 1312.04 979.95 1312.04 658.49 1632.61 658.01 1632.61 321.75"/><polygon class="cls-3" points="976.64 321.75 656.84 321.75 656.84 0 320.57 0 320.57 321.46 0 321.93 0 658.2 319.8 658.2 319.8 979.95 656.07 979.95 656.07 658.49 976.64 658.01 976.64 321.75"/></g></g></svg>